<!DOCTYPE svg PUBLIC "-//W3C//DTD SVG 1.1//EN" "http://www.w3.org/Graphics/SVG/1.1/DTD/svg11.dtd">
<!-- Uploaded to: SVG Repo, www.svgrepo.com, Transformed by: SVG Repo Mixer Tools -->
<svg version="1.1" id="Layer_1" xmlns="http://www.w3.org/2000/svg" xmlns:xlink="http://www.w3.org/1999/xlink" viewBox="0 0 504 504" xml:space="preserve" width="256px" height="256px" fill="#000000">
<g id="SVGRepo_bgCarrier" stroke-width="0"/>
<g id="SVGRepo_tracerCarrier" stroke-linecap="round" stroke-linejoin="round"/>
<g id="SVGRepo_iconCarrier"> <circle style="fill:#454c5c;" cx="252" cy="252" r="252"/> <g> <rect x="310.82" y="336.093" transform="matrix(-0.798 0.6027 -0.6027 -0.798 809.128 480.8684)" style="fill:#E6E9EE;" width="26.301" height="79.902"/> <rect x="166.904" y="336.072" transform="matrix(0.798 0.6027 -0.6027 0.798 262.998 -32.5515)" style="fill:#E6E9EE;" width="26.301" height="79.902"/> </g> <circle style="fill:#84DBFF;" cx="252" cy="256.7" r="126.9"/> <circle style="fill:#E6E9EE;" cx="252" cy="256.7" r="98.9"/> <g> <path style="fill:#FFD05B;" d="M399.1,190.8c17.9-20.2,17.2-51-2.1-70.3c-19.3-19.3-50.1-20-70.3-2.1L399.1,190.8z"/> <path style="fill:#FFD05B;" d="M104.9,190.8c-17.9-20.2-17.2-51,2.1-70.3s50.1-20,70.3-2.1L104.9,190.8z"/> </g> <polygon style="fill:#454c5c;" points="259.6,245.7 259.6,195 244.4,195 244.4,260.9 303.5,260.9 303.5,245.7 "/> <g> <circle style="fill:#FF7058;" cx="252" cy="176" r="8.2"/> <circle style="fill:#FF7058;" cx="252" cy="337.4" r="8.2"/> <circle style="fill:#FF7058;" cx="332.7" cy="256.7" r="8.2"/> <circle style="fill:#FF7058;" cx="171.3" cy="256.7" r="8.2"/> </g> </g>
</svg>