<!DOCTYPE svg PUBLIC "-//W3C//DTD SVG 1.1//EN" "http://www.w3.org/Graphics/SVG/1.1/DTD/svg11.dtd">
<!-- Uploaded to: SVG Repo, www.svgrepo.com, Transformed by: SVG Repo Mixer Tools -->
<svg version="1.1" id="Layer_1" xmlns="http://www.w3.org/2000/svg" xmlns:xlink="http://www.w3.org/1999/xlink" viewBox="0 0 465.898 465.898" xml:space="preserve" width="256px" height="256px" fill="#000000">
<g id="SVGRepo_bgCarrier" stroke-width="0"/>
<g id="SVGRepo_tracerCarrier" stroke-linecap="round" stroke-linejoin="round"/>
<g id="SVGRepo_iconCarrier"> <g> <path style="fill:#F24125;" d="M252.234,368.725c7.328,0,13.268,11.406,13.268,25.469c0,14.062-5.94,25.457-13.268,25.457 c-7.329,0-13.269-11.396-13.269-25.457C238.965,380.132,244.905,368.725,252.234,368.725"/> <path style="fill:#F24125;" d="M213.662,320.236c7.329,0,13.269,11.406,13.269,25.468c0,14.063-5.94,25.458-13.269,25.458 c-7.328,0-13.268-11.395-13.268-25.458C200.394,331.642,206.334,320.236,213.662,320.236"/> <path style="fill:#F7B239;" d="M213.662,320.236c-7.328,0-13.268,11.406-13.268,25.468c0,14.063,5.94,25.458,13.268,25.458 c7.329,0,13.269-11.395,13.269-25.458C226.931,331.642,220.991,320.236,213.662,320.236 M252.234,291.142 c25.259,8.133,43.53,31.839,43.53,59.797v85.959H170.132V350.94c0-34.691,28.124-62.817,62.817-62.817 C239.682,288.122,246.161,289.18,252.234,291.142 M252.234,368.725c-7.329,0-13.269,11.406-13.269,25.469 c0,14.062,5.94,25.457,13.269,25.457c7.328,0,13.268-11.396,13.268-25.457C265.502,380.132,259.562,368.725,252.234,368.725"/> <path style="fill:#A17A36;" d="M238.965,394.195L238.965,394.195c0-14.063,5.94-25.469,13.269-25.469 c7.328,0,13.268,11.406,13.268,25.469l0,0l0,0l0,0c0,14.062-5.94,25.457-13.268,25.457 C244.905,419.652,238.965,408.257,238.965,394.195L238.965,394.195L238.965,394.195 M200.394,345.704L200.394,345.704 c0-14.062,5.94-25.468,13.268-25.468c7.329,0,13.269,11.406,13.269,25.468l0,0l0,0l0,0c0,14.063-5.94,25.458-13.269,25.458 C206.334,371.161,200.394,359.767,200.394,345.704L200.394,345.704L200.394,345.704 M232.949,288.122 c-34.693,0-62.817,28.125-62.817,62.817v85.959h125.632V350.94c0-27.958-18.271-51.664-43.53-59.797 C246.161,289.18,239.682,288.122,232.949,288.122"/> <path style="fill:#C67934;" d="M232.948,63.604c10.822,0,19.594,8.772,19.594,19.594s-8.772,19.605-19.594,19.605 s-19.594-8.783-19.594-19.605C213.354,72.377,222.126,63.604,232.948,63.604z"/> <path style="fill:#81BBEA;" d="M295.764,194.747c0,34.692-28.124,62.817-62.816,62.817c-15.517,0-29.723-5.631-40.688-14.955 c-13.533-11.517-22.128-28.686-22.128-47.862c0-34.691,28.124-62.815,62.817-62.815c19.175,0,36.344,8.595,47.861,22.128 C290.133,165.025,295.764,179.23,295.764,194.747"/> <path style="fill:#F7B239;" d="M252.234,291.142c-6.073-1.962-12.552-3.02-19.286-3.02c-34.693,0-62.817,28.125-62.817,62.817 v85.959h-31.408V104.083h-22.207L232.949,6l116.43,98.082h-22.207v332.816h-31.408V350.94 C295.764,322.981,277.493,299.275,252.234,291.142 M295.764,194.747c0-34.691-28.124-62.815-62.816-62.815 c-34.693,0-62.817,28.124-62.817,62.815c0,34.692,28.124,62.817,62.817,62.817C267.64,257.563,295.764,229.439,295.764,194.747 M252.543,83.199c0-10.822-8.772-19.594-19.594-19.594c-10.822,0-19.594,8.772-19.594,19.594s8.772,19.605,19.594,19.605 C243.771,102.804,252.543,94.021,252.543,83.199"/> <path style="fill:#333333;" d="M257.193,200.747h-24.246c-3.313,0-5.999-2.686-5.999-6V156.98c0-3.313,2.686-6,5.999-6 c3.314,0,5.999,2.687,5.999,6v31.768h18.246c3.313,0,6.001,2.687,6.001,6C263.194,198.062,260.506,200.747,257.193,200.747"/> <path style="fill:#ACD0ED;" d="M280.81,154.06l-34.688,34.688h11.071c3.313,0,6.001,2.687,6.001,6c0,3.314-2.687,6-6.001,6h-23.071 L192.26,242.61c1.432,1.216,2.918,2.37,4.455,3.458c0.016,0.011,0.033,0.023,0.049,0.034c0.024,0.017,0.045,0.031,0.069,0.048 c9.474,6.666,20.872,10.783,33.194,11.347c0.013,0,0.028,0.001,0.041,0.002c0.047,0.002,0.091,0.004,0.138,0.006 c0.017,0.001,0.034,0.001,0.05,0.002c0.044,0.001,0.087,0.003,0.132,0.005c0.019,0,0.04,0.001,0.059,0.002 c0.043,0.002,0.085,0.003,0.128,0.005c0.021,0.001,0.042,0.002,0.063,0.002c0.039,0.001,0.08,0.003,0.12,0.004 c0.025,0.001,0.052,0.001,0.078,0.002c0.038,0.001,0.076,0.002,0.114,0.004c0.025,0,0.048,0.001,0.073,0.002 c0.039,0.001,0.076,0.002,0.114,0.003c0.017,0,0.035,0.001,0.052,0.001c0.073,0.002,0.147,0.004,0.221,0.006 c0.034,0,0.07,0.001,0.104,0.002c0.028,0,0.055,0.001,0.084,0.001c0.034,0.001,0.073,0.002,0.107,0.002 c0.028,0,0.058,0.001,0.086,0.001c0.038,0.001,0.073,0.001,0.111,0.002c0.027,0,0.055,0.001,0.082,0.001 c0.036,0,0.073,0.001,0.108,0.001c0.028,0,0.057,0,0.085,0.001c0.038,0,0.078,0.001,0.116,0.001c0.025,0,0.051,0,0.076,0 c0.04,0,0.077,0.001,0.117,0.001c0.026,0,0.052,0,0.078,0c0.044,0,0.085,0,0.13,0.001c0.021,0,0.042,0,0.063,0 c0.063,0,0.13,0,0.193,0l0,0c34.691,0,62.816-28.125,62.816-62.817c0-0.063,0-0.13,0-0.193c0-0.021,0-0.042,0-0.063 c0-0.044,0-0.085-0.001-0.13c0-0.025,0-0.052,0-0.078c0-0.04-0.001-0.077-0.001-0.117c0-0.025,0-0.051-0.001-0.076 c0-0.038-0.001-0.078-0.001-0.116c0-0.028-0.001-0.057-0.001-0.085c0-0.036-0.001-0.072-0.002-0.108 c0-0.028-0.001-0.055-0.001-0.083c-0.001-0.038-0.001-0.071-0.002-0.109c0-0.028-0.001-0.059-0.002-0.087 c-0.001-0.034-0.001-0.072-0.002-0.105c-0.001-0.028-0.001-0.057-0.002-0.085c-0.001-0.034-0.002-0.067-0.002-0.101 c-0.003-0.132-0.007-0.266-0.011-0.397c-0.001-0.021-0.001-0.044-0.002-0.065c-0.001-0.04-0.003-0.079-0.004-0.118 c-0.001-0.023-0.002-0.049-0.002-0.073c-0.001-0.041-0.003-0.083-0.005-0.124c-0.001-0.019-0.001-0.04-0.002-0.058 c-0.002-0.044-0.003-0.088-0.005-0.132c-0.001-0.019-0.001-0.035-0.002-0.054c-0.002-0.045-0.004-0.091-0.006-0.136 c-0.001-0.017-0.001-0.027-0.002-0.044c-0.002-0.048-0.004-0.096-0.006-0.144c-0.001-0.012-0.001-0.021-0.002-0.033 c-0.563-12.323-4.682-23.724-11.348-33.199c-0.015-0.021-0.032-0.045-0.047-0.066c-0.012-0.017-0.025-0.036-0.037-0.053 c-0.03-0.042-0.058-0.083-0.088-0.124c-0.002-0.002-0.004-0.005-0.005-0.007c-1.059-1.49-2.182-2.931-3.364-4.32"/> <path style="fill:#F5CA7F;" d="M232.755,257.563c0.064,0,0.129,0,0.193,0C232.885,257.563,232.819,257.563,232.755,257.563 M232.563,257.563c0.044,0,0.086,0,0.13,0.001C232.648,257.563,232.607,257.563,232.563,257.563 M232.368,257.56 c0.04,0,0.077,0.001,0.117,0.001C232.445,257.561,232.408,257.561,232.368,257.56 M232.176,257.559 c0.039,0,0.077,0.001,0.116,0.001C232.254,257.559,232.214,257.559,232.176,257.559 M231.982,257.556 c0.037,0,0.072,0.001,0.108,0.001C232.055,257.557,232.018,257.556,231.982,257.556 M231.79,257.552 c0.037,0.001,0.074,0.001,0.111,0.002C231.862,257.554,231.828,257.553,231.79,257.552 M231.596,257.549 c0.036,0.001,0.071,0.002,0.107,0.002C231.669,257.551,231.63,257.55,231.596,257.549 M231.408,257.546 c0.035,0,0.069,0.001,0.104,0.002C231.479,257.546,231.442,257.546,231.408,257.546 M231.136,257.537 c0.017,0,0.035,0.001,0.052,0.001C231.171,257.538,231.153,257.538,231.136,257.537 M230.948,257.533 c0.024,0,0.049,0.001,0.073,0.002C230.996,257.533,230.973,257.533,230.948,257.533 M230.757,257.526 c0.026,0.001,0.051,0.001,0.078,0.002C230.809,257.527,230.782,257.527,230.757,257.526 M230.574,257.52 c0.021,0.001,0.043,0.002,0.063,0.002C230.616,257.521,230.595,257.52,230.574,257.52 M230.387,257.512 c0.02,0,0.039,0.001,0.059,0.002C230.427,257.513,230.406,257.512,230.387,257.512 M230.205,257.504 c0.016,0.001,0.034,0.001,0.05,0.002C230.239,257.507,230.222,257.505,230.205,257.504 M230.027,257.496 c0.013,0,0.028,0.001,0.041,0.002C230.055,257.498,230.039,257.497,230.027,257.496 M196.764,246.102 c0.023,0.016,0.046,0.032,0.069,0.048C196.809,246.133,196.789,246.118,196.764,246.102 M192.26,242.609L192.26,242.609 c1.432,1.217,2.918,2.371,4.455,3.458c-1.537-1.088-3.023-2.242-4.454-3.459 M295.764,194.553L295.764,194.553 c0,0.063,0,0.13,0,0.193l0,0C295.764,194.683,295.764,194.618,295.764,194.553 M295.763,194.361L295.763,194.361 c0,0.044,0,0.085,0.001,0.13l0,0C295.763,194.448,295.763,194.405,295.763,194.361 M295.762,194.167L295.762,194.167 c0,0.04,0.001,0.077,0.001,0.117l0,0C295.762,194.243,295.762,194.206,295.762,194.167 M295.759,193.975L295.759,193.975 c0,0.038,0.001,0.078,0.001,0.116l0,0C295.76,194.053,295.76,194.012,295.759,193.975 M295.757,193.782L295.757,193.782 c0,0.036,0.001,0.072,0.002,0.108l0,0C295.758,193.853,295.757,193.818,295.757,193.782 M295.754,193.589L295.754,193.589 c0.001,0.038,0.001,0.071,0.002,0.109l0,0C295.755,193.661,295.754,193.626,295.754,193.589 M295.75,193.396L295.75,193.396 c0.001,0.034,0.001,0.072,0.002,0.105l0,0C295.751,193.465,295.751,193.432,295.75,193.396 M295.746,193.21L295.746,193.21 c0.001,0.034,0.002,0.067,0.002,0.101l0,0C295.747,193.277,295.747,193.243,295.746,193.21 M295.733,192.747L295.733,192.747 c0.001,0.021,0.001,0.044,0.002,0.065l0,0C295.734,192.792,295.734,192.769,295.733,192.747 M295.727,192.557L295.727,192.557 c0.001,0.023,0.002,0.049,0.002,0.073l0,0C295.728,192.605,295.727,192.581,295.727,192.557 M295.72,192.374L295.72,192.374 c0.001,0.019,0.001,0.039,0.002,0.058l0,0C295.722,192.413,295.721,192.394,295.72,192.374 M295.713,192.188L295.713,192.188 c0.001,0.019,0.001,0.035,0.002,0.054l0,0C295.714,192.224,295.714,192.206,295.713,192.188 M295.706,192.008L295.706,192.008 c0.001,0.017,0.001,0.028,0.002,0.044l0,0C295.707,192.036,295.706,192.023,295.706,192.008 M295.698,191.831L295.698,191.831 c0.001,0.013,0.001,0.021,0.002,0.033l0,0C295.699,191.853,295.698,191.842,295.698,191.831 M284.303,158.566L284.303,158.566 c0.015,0.021,0.032,0.045,0.047,0.066l0,0C284.334,158.609,284.319,158.588,284.303,158.566 M284.178,158.389L284.178,158.389 c0.03,0.042,0.058,0.082,0.088,0.124l0,0C284.237,158.471,284.208,158.43,284.178,158.389 M280.81,154.06L280.81,154.06 c1.181,1.39,2.304,2.832,3.363,4.321l0,0C283.113,156.891,281.992,155.45,280.81,154.06"/> <path style="fill:#7C7C7C;" d="M257.193,188.747h-11.071l-12,12h23.071c3.313,0,6.001-2.686,6.001-6 S260.506,188.747,257.193,188.747"/> <path style="fill:#FFFFFF;" d="M304.953,312.975c-3.313,0-6-2.687-6-6v-69.961c0-3.313,2.687-6,6-6s6,2.687,6,6v69.961 C310.953,310.289,308.267,312.975,304.953,312.975z"/> <path style="fill:#FFFFFF;" d="M238.391,42.859c-1.58,0-3.13-0.64-4.25-1.76c-0.27-0.27-0.529-0.58-0.739-0.91 c-0.221-0.33-0.4-0.67-0.55-1.04c-0.15-0.36-0.27-0.74-0.35-1.12c-0.07-0.39-0.11-0.78-0.11-1.17s0.04-0.79,0.11-1.17 c0.08-0.39,0.2-0.76,0.35-1.13c0.15-0.36,0.33-0.71,0.55-1.03c0.21-0.33,0.47-0.64,0.739-0.91c1.12-1.12,2.67-1.76,4.25-1.76 s3.12,0.64,4.24,1.76c0.271,0.27,0.53,0.58,0.74,0.91c0.22,0.32,0.41,0.67,0.56,1.03c0.15,0.37,0.261,0.74,0.34,1.13 c0.08,0.38,0.12,0.78,0.12,1.17c0,1.58-0.64,3.12-1.76,4.24S239.971,42.859,238.391,42.859z"/> <path style="fill:#FFFFFF;" d="M306.276,100.051c-1.365,0-2.737-0.463-3.862-1.411L252,56.17c-2.535-2.135-2.858-5.92-0.724-8.455 s5.921-2.858,8.454-0.723l50.414,42.469c2.535,2.135,2.858,5.92,0.724,8.455C309.682,99.325,307.984,100.051,306.276,100.051z"/> <rect x="157.448" y="436.898" style="fill:#C67934;" width="151" height="23"/> <path style="fill:#333333;" d="M353.244,99.493L236.814,1.411c-2.234-1.882-5.498-1.882-7.731,0l-116.43,98.082 c-1.927,1.624-2.635,4.279-1.771,6.646c0.864,2.367,3.116,3.942,5.636,3.942h16.206v326.816c0,3.314,2.686,6,6,6h12.724v17 c0,3.313,2.687,6,6,6h151.001c3.313,0,6-2.687,6-6v-17h12.725c3.313,0,6-2.686,6-6V110.083h16.206c2.521,0,4.771-1.575,5.636-3.942 C355.879,103.773,355.172,101.118,353.244,99.493z M302.448,453.898h-139v-11h139.001v11H302.448z M213.662,326.236 c2.109,0,7.269,6.822,7.269,19.468c0,12.639-5.159,19.457-7.269,19.457s-7.269-6.818-7.269-19.457 C206.394,333.059,211.553,326.236,213.662,326.236z M207.662,315.678c-7.865,3.932-13.269,15.538-13.269,30.026 c0,17.934,8.284,31.457,19.269,31.457s19.269-13.523,19.269-31.457c0-14.488-5.404-26.094-13.269-30.026v-21.074 c4.265-1.026,8.71-1.584,13.286-1.584c4.508,0,8.959,0.526,13.286,1.564v69.584c-7.865,3.932-13.269,15.538-13.269,30.026 c0,17.934,8.283,31.457,19.269,31.457c10.985,0,19.269-13.523,19.269-31.457c0-14.488-5.404-26.094-13.269-30.026v-65.229 c19.151,9.468,31.531,28.993,31.531,50.897v81.062H176.132v-81.062c0-22.248,12.86-41.538,31.53-50.859V315.678z M252.233,374.727 c2.109,0,7.269,6.822,7.269,19.468c0,12.639-5.159,19.457-7.269,19.457s-7.269-6.818-7.269-19.457 C244.965,381.548,250.124,374.727,252.233,374.727z M327.173,98.083c-3.313,0-6,2.686-6,6v326.816h-12.725h-6.684v-81.062 c0-29.997-19.166-56.323-47.687-65.506c-6.799-2.197-13.908-3.311-21.13-3.311c-37.945,0-68.816,30.871-68.816,68.816v81.062 h-6.684h-12.724V104.083c0-3.314-2.687-6-6-6h-5.771l99.995-84.236l99.996,84.236H327.173z"/> <path style="fill:#333333;" d="M207.354,83.199c0,14.119,11.481,25.605,25.594,25.605s25.594-11.486,25.594-25.605 c0-14.113-11.481-25.594-25.594-25.594S207.354,69.086,207.354,83.199z M246.542,83.199c0,7.502-6.099,13.605-13.594,13.605 c-7.496,0-13.594-6.104-13.594-13.605c0-7.496,6.098-13.594,13.594-13.594C240.443,69.604,246.542,75.703,246.542,83.199z"/> <path style="fill:#333333;" d="M164.132,194.747c0,37.945,30.871,68.816,68.816,68.816c37.946,0,68.817-30.871,68.817-68.816 s-30.871-68.816-68.817-68.816C195.002,125.931,164.132,156.803,164.132,194.747z M289.765,194.747 c0,31.329-25.488,56.816-56.817,56.816s-56.816-25.487-56.816-56.816s25.487-56.816,56.816-56.816S289.765,163.419,289.765,194.747 z"/> </g> </g>
</svg>