<!DOCTYPE svg PUBLIC "-//W3C//DTD SVG 1.1//EN" "http://www.w3.org/Graphics/SVG/1.1/DTD/svg11.dtd">
<!-- Uploaded to: SVG Repo, www.svgrepo.com, Transformed by: SVG Repo Mixer Tools -->
<svg height="256px" width="256px" version="1.1" id="Capa_1" xmlns="http://www.w3.org/2000/svg" xmlns:xlink="http://www.w3.org/1999/xlink" viewBox="-0.11 -0.11 11.55 11.55" xml:space="preserve" fill="#000000">
<g id="SVGRepo_bgCarrier" stroke-width="0"/>
<g id="SVGRepo_tracerCarrier" stroke-linecap="round" stroke-linejoin="round"/>
<g id="SVGRepo_iconCarrier"> <g> <path style="fill:rgb(254, 208, 0);" d="M11.145,9.085L7.723,5.664l3.422-3.421c0.243-0.244,0.243-0.64,0-0.883L9.967,0.183 c-0.244-0.244-0.64-0.244-0.883,0L5.662,3.604l-3.42-3.421c-0.244-0.244-0.639-0.244-0.883,0L0.183,1.36 c-0.243,0.244-0.243,0.639,0,0.883l3.421,3.421L0.183,9.085c-0.243,0.244-0.243,0.639,0,0.883l1.177,1.178 c0.244,0.243,0.639,0.243,0.883,0l3.42-3.422l3.422,3.422c0.243,0.243,0.639,0.243,0.883,0l1.178-1.178 C11.389,9.724,11.389,9.329,11.145,9.085z"/> </g> </g>
</svg>