<!DOCTYPE svg PUBLIC "-//W3C//DTD SVG 1.1//EN" "http://www.w3.org/Graphics/SVG/1.1/DTD/svg11.dtd">
<!-- Uploaded to: SVG Repo, www.svgrepo.com, Transformed by: SVG Repo Mixer Tools -->
<svg width="256px" height="256px" viewBox="-0.5 0 25 25" fill="none" xmlns="http://www.w3.org/2000/svg">
<g id="SVGRepo_bgCarrier" stroke-width="0"/>
<g id="SVGRepo_tracerCarrier" stroke-linecap="round" stroke-linejoin="round"/>
<g id="SVGRepo_iconCarrier"> <path d="M10.9395 17.72C12.9395 19.5 15.3895 20.72 16.5495 20.33C18.6495 19.55 18.9995 15.3299 18.9995 12.4099C18.9995 11.5999 18.9995 10.68 18.8895 9.77002" stroke="rgb(254, 208, 0)" stroke-width="1.5" stroke-linecap="round" stroke-linejoin="round"/> <path d="M18.1292 6.28008C18.0012 5.89129 17.795 5.53273 17.5233 5.22661C17.2516 4.9205 16.9201 4.67327 16.5493 4.50005C15.3193 4.04005 12.7093 5.49996 10.5493 7.40996H8.94922C7.88835 7.40996 6.87093 7.83145 6.12079 8.58159C5.37064 9.33174 4.94922 10.3491 4.94922 11.41V13.41C4.9489 14.1811 5.17151 14.936 5.59021 15.5835C6.00892 16.2311 6.60585 16.7438 7.3092 17.06" stroke="rgb(254, 208, 0)" stroke-width="1.5" stroke-linecap="round" stroke-linejoin="round"/> <path d="M22 2.42004L2 22.42" stroke="rgb(254, 208, 0)" stroke-width="1.5" stroke-linecap="round" stroke-linejoin="round"/> </g>
</svg>